<!DOCTYPE svg PUBLIC "-//W3C//DTD SVG 1.1//EN" "http://www.w3.org/Graphics/SVG/1.1/DTD/svg11.dtd">
<!-- Uploaded to: SVG Repo, www.svgrepo.com, Transformed by: SVG Repo Mixer Tools -->
<svg fill="#ffffff" width="800px" height="800px" viewBox="-6.4 -6.4 76.80 76.80" version="1.1" xml:space="preserve" xmlns="http://www.w3.org/2000/svg" xmlns:xlink="http://www.w3.org/1999/xlink" stroke="#ffffff">
<g id="SVGRepo_bgCarrier" stroke-width="0">
<rect x="-6.4" y="-6.4" width="76.80" height="76.80" rx="38.4" fill="#2E854B" strokewidth="0"/>
</g>
<g id="SVGRepo_tracerCarrier" stroke-linecap="round" stroke-linejoin="round"/>
<g id="SVGRepo_iconCarrier"> <g id="_x32_5_attachment"/> <g id="_x32_4_office"/> <g id="_x32_3_pin"> <g> <g> <path d="M37.4066,52.3916c8.9614-11.9005,13.3463-22.3834,13.3463-31.8931C50.7529,9.7471,42.3398,1,31.998,1 c-10.3394,0-18.751,8.7471-18.751,19.4985c0,9.5117,4.3836,19.9946,13.3429,31.8932c-5.9889,0.5694-11.777,2.1682-11.777,5.1761 C14.813,61.3003,23.7212,63,31.998,63c8.2793,0,17.1894-1.6997,17.1894-5.4321C49.1875,54.5599,43.3968,52.9611,37.4066,52.3916z M15.2471,20.4985C15.2471,10.8496,22.7617,3,31.998,3c9.2383,0,16.7549,7.8496,16.7549,17.4985 c0,10.3096-5.4824,21.9341-16.7549,35.5112C20.7285,42.4351,15.2471,30.8105,15.2471,20.4985z M31.998,61 c-9.8252,0-15.1851-2.2671-15.1851-3.4321c0-0.9174,3.7601-2.764,11.2316-3.289c1.0158,1.2963,2.0667,2.6037,3.1893,3.934 c0.1899,0.2251,0.4697,0.355,0.7642,0.355s0.5742-0.1299,0.7642-0.355c1.1227-1.3304,2.1737-2.6379,3.1896-3.9343 c7.474,0.5246,11.2357,2.3716,11.2357,3.2892C47.1875,58.7329,41.8262,61,31.998,61z"/> <path d="M44.5137,20.3291c0-6.9009-5.6143-12.5151-12.5156-12.5151c-6.8989,0-12.5112,5.6143-12.5112,12.5151 c0,6.8989,5.6123,12.5117,12.5112,12.5117C38.8994,32.8408,44.5137,27.228,44.5137,20.3291z M24.3084,27.472 c-1.7448-1.8773-2.8216-4.3837-2.8216-7.1429c0-5.7979,4.7153-10.5151,10.5112-10.5151c5.7979,0,10.5156,4.7173,10.5156,10.5151 c0,2.7597-1.0778,5.2666-2.824,7.144c-1.4221-2.89-4.3912-4.8046-7.6917-4.8046C28.7015,22.6685,25.733,24.5825,24.3084,27.472z M31.998,24.6685c2.719,0,5.1299,1.7039,6.1058,4.2022c-1.7236,1.2348-3.8284,1.9702-6.1058,1.9702 c-2.2773,0-4.3818-0.7358-6.1049-1.9713C26.8719,26.3718,29.2825,24.6685,31.998,24.6685z"/> <path d="M36.3135,16.8584c0-2.3774-1.9355-4.312-4.3154-4.312c-2.3774,0-4.3115,1.9346-4.3115,4.312 c0,2.3794,1.9341,4.3149,4.3115,4.3149C34.3779,21.1733,36.3135,19.2378,36.3135,16.8584z M29.6865,16.8584 c0-1.2749,1.0371-2.312,2.3115-2.312c1.2764,0,2.3154,1.0371,2.3154,2.312c0,1.2764-1.0391,2.3149-2.3154,2.3149 C30.7236,19.1733,29.6865,18.1348,29.6865,16.8584z"/> </g> </g> </g> <g id="_x32_2_business_card"/> <g id="_x32_1_form"/> <g id="_x32_0_headset"/> <g id="_x31_9_video_call"/> <g id="_x31_8_letter_box"/> <g id="_x31_7_papperplane"/> <g id="_x31_6_laptop"/> <g id="_x31_5_connection"/> <g id="_x31_4_phonebook"/> <g id="_x31_3_classic_telephone"/> <g id="_x31_2_sending_mail"/> <g id="_x31_1_man_talking"/> <g id="_x31_0_date"/> <g id="_x30_9_review"/> <g id="_x30_8_email"/> <g id="_x30_7_information"/> <g id="_x30_6_phone_talking"/> <g id="_x30_5_women_talking"/> <g id="_x30_4_calling"/> <g id="_x30_3_women"/> <g id="_x30_2_writing"/> <g id="_x30_1_chatting"/> </g>
</svg>