<svg xmlns="http://www.w3.org/2000/svg" version="1.1" xmlns:xlink="http://www.w3.org/1999/xlink" xmlns:svgjs="http://svgjs.dev/svgjs" width="1500" height="1500" viewBox="0 0 1500 1500"><rect width="1500" height="1500" fill="#ffffff"></rect><g transform="matrix(0.6666666666666666,0,0,0.6666666666666666,250.10490505614814,423.59784075573555)"><svg viewBox="0 0 378 247" data-background-color="#ffffff" preserveAspectRatio="xMidYMid meet" height="980" width="1500" xmlns="http://www.w3.org/2000/svg" xmlns:xlink="http://www.w3.org/1999/xlink"><g id="tight-bounds" transform="matrix(1,0,0,1,-0.03965411122399587,-0.09999999999999432)"><svg viewBox="0 0 378.079308222448 247.2" height="247.2" width="378.079308222448"><g><svg viewBox="0 0 395.52 258.60326622919604" height="247.2" width="378.079308222448"><g transform="matrix(1,0,0,1,0,169.01803426417297)"><svg viewBox="0 0 395.52 89.58523196502308" height="89.58523196502308" width="395.52"><g id="textblocktransform"><svg viewBox="0 0 395.52 89.58523196502308" height="89.58523196502308" width="395.52" id="textblock"><g><svg viewBox="0 0 395.52 89.58523196502308" height="89.58523196502308" width="395.52"><g transform="matrix(1,0,0,1,0,0)"><svg width="395.52" viewBox="-2.62 -43.08 206.83 47.629999999999995" height="89.58523196502308" data-palette-color="#000000"><path d="M22.1 0.08L10.5 0.08 1.38-36.88 9.95-36.88 16.45-4.73 16.1-4.73 22.55-36.88 31.15-36.88 22.1 0.08ZM42.92 0L35.25 0 35.25-26.55 42.92-26.55 42.92 0ZM39.07-30.88L39.07-30.88Q37.27-30.88 35.94-31.83 34.6-32.77 34.6-34.5L34.6-34.5Q34.6-36.25 35.94-37.2 37.27-38.15 39.07-38.15L39.07-38.15Q40.9-38.15 42.23-37.2 43.57-36.25 43.57-34.5L43.57-34.5Q43.57-32.75 42.23-31.81 40.9-30.88 39.07-30.88ZM61.7 0.55L61.7 0.55Q60.17 0.55 58.56 0.29 56.95 0.03 55.56-0.76 54.17-1.55 53.32-3.08 52.47-4.6 52.47-7.1L52.47-7.1Q52.47-7.65 52.47-8.22 52.47-8.8 52.47-9.38L52.47-9.38 52.47-20.55 46.35-20.55 46.35-26.55 48.07-26.55Q49.57-26.55 50.46-26.68 51.35-26.8 51.78-27.31 52.22-27.83 52.35-28.93 52.47-30.03 52.47-31.95L52.47-31.95 52.47-35.3 60.25-35.3 60.25-26.55 67.97-26.55 67.97-20.55 60.25-20.55 60.25-11Q60.25-10.55 60.25-10.13 60.25-9.7 60.25-9.3L60.25-9.3Q60.25-7.58 60.66-6.5 61.07-5.43 62.72-5.43L62.72-5.43Q63.55-5.43 64.28-5.58 65.02-5.73 65.4-5.88L65.4-5.88 65.4-0.05Q64.87 0.18 63.92 0.36 62.97 0.55 61.7 0.55ZM91.72 0.08L80.12 0.08 70.99-36.88 79.57-36.88 86.07-4.73 85.72-4.73 92.17-36.88 100.77-36.88 91.72 0.08ZM112.62 0.55L112.62 0.55Q109.72 0.55 107.45-0.38 105.19-1.3 103.92-3.05 102.64-4.8 102.64-7.3L102.64-7.3Q102.64-10.13 104.19-11.9 105.74-13.68 108.3-14.61 110.87-15.55 113.87-15.85L113.87-15.85Q118.24-16.28 119.9-16.63 121.57-16.98 121.57-17.85L121.57-17.85Q121.57-17.85 121.57-17.86 121.57-17.88 121.57-17.9L121.57-17.9Q121.57-19.38 120.15-20.23 118.74-21.08 116.22-21.08L116.22-21.08Q113.54-21.08 112.13-20.11 110.72-19.15 110.72-17.18L110.72-17.18 103.09-17.18Q103.09-20.38 104.83-22.58 106.57-24.78 109.54-25.91 112.52-27.05 116.27-27.05L116.27-27.05Q119.77-27.05 122.74-25.99 125.72-24.93 127.53-22.8 129.34-20.68 129.34-17.4L129.34-17.4Q129.34-16.88 129.34-16.36 129.34-15.85 129.34-15.33L129.34-15.33 129.34-5.93Q129.34-4.9 129.4-3.96 129.47-3.03 129.69-2.25L129.69-2.25Q129.94-1.38 130.32-0.8 130.69-0.23 130.94 0L130.94 0 123.32 0Q123.14-0.18 122.78-0.73 122.42-1.28 122.17-2L122.17-2Q121.87-2.88 121.73-3.76 121.59-4.65 121.59-5.85L121.59-5.85 123.19-4.75Q122.49-3.1 120.93-1.91 119.37-0.73 117.23-0.09 115.09 0.55 112.62 0.55ZM114.69-5.25L114.69-5.25Q116.52-5.25 118.1-5.91 119.69-6.58 120.69-8 121.69-9.43 121.69-11.73L121.69-11.73 121.69-14.4 123.62-12.53Q121.97-11.93 119.8-11.54 117.64-11.15 115.49-10.93L115.49-10.93Q112.94-10.68 111.68-10.06 110.42-9.45 110.42-8L110.42-8Q110.42-6.63 111.49-5.94 112.57-5.25 114.69-5.25ZM144.44 0.5L144.44 0.5Q141.61 0.5 139.79-0.41 137.96-1.33 136.91-2.88 135.86-4.42 135.44-6.33 135.01-8.22 135.01-10.18L135.01-10.18Q135.01-11.08 135.01-12.08 135.01-13.08 135.01-14.13L135.01-14.13 135.01-26.55 142.76-26.55 142.76-15.35Q142.76-14.5 142.76-13.7 142.76-12.9 142.76-12.23L142.76-12.23Q142.76-10.55 143.14-9.15 143.51-7.75 144.53-6.9 145.54-6.05 147.41-6.05L147.41-6.05Q149.24-6.05 150.51-7.09 151.79-8.13 152.46-9.75 153.14-11.38 153.14-13.1L153.14-13.1 155.31-11.33Q155.31-8.83 154.55-6.68 153.79-4.53 152.39-2.91 150.99-1.3 148.98-0.4 146.96 0.5 144.44 0.5ZM160.89 0L153.14 0 153.14-26.55 160.89-26.55 160.89 0ZM167.06-39.08L174.71-39.08 174.71 0 167.06 0 167.06-39.08ZM193.93 0.55L193.93 0.55Q192.41 0.55 190.8 0.29 189.18 0.03 187.8-0.76 186.41-1.55 185.56-3.08 184.71-4.6 184.71-7.1L184.71-7.1Q184.71-7.65 184.71-8.22 184.71-8.8 184.71-9.38L184.71-9.38 184.71-20.55 178.58-20.55 178.58-26.55 180.31-26.55Q181.81-26.55 182.7-26.68 183.58-26.8 184.02-27.31 184.46-27.83 184.58-28.93 184.71-30.03 184.71-31.95L184.71-31.95 184.71-35.3 192.48-35.3 192.48-26.55 200.21-26.55 200.21-20.55 192.48-20.55 192.48-11Q192.48-10.55 192.48-10.13 192.48-9.7 192.48-9.3L192.48-9.3Q192.48-7.58 192.9-6.5 193.31-5.43 194.96-5.43L194.96-5.43Q195.78-5.43 196.52-5.58 197.26-5.73 197.63-5.88L197.63-5.88 197.63-0.05Q197.11 0.18 196.16 0.36 195.21 0.55 193.93 0.55Z" opacity="1" transform="matrix(1,0,0,1,0,0)" fill="#000000" class="wordmark-text-0" data-fill-palette-color="primary" id="text-0"></path></svg></g></svg></g></svg></g></svg></g><g transform="matrix(1,0,0,1,116.71947335775329,0)"><svg viewBox="0 0 162.0810532844934 151.04428450230753" height="151.04428450230753" width="162.0810532844934"><g><svg xmlns="http://www.w3.org/2000/svg" xmlns:xlink="http://www.w3.org/1999/xlink" version="1.1" x="8" y="0" viewBox="15.505719744882093 8.89 71.28406181580726 73.70599999999999" enable-background="new 0 0 100 100" xml:space="preserve" height="151.04428450230753" width="146.0810532844934" class="icon-icon-0" data-fill-palette-color="accent" id="icon-0"><g fill="#5dbb63" data-fill-palette-color="accent"><path fill="none" d="M82.357 56.674c-5.963-14.997-12.116-26.57-16.461-30.959-1.113-1.124-2.056-2.099-2.882-2.953-4.804-4.964-5.306-5.482-12.436-7.791-1.347-0.437-2.434-0.794-3.316-1.084-1.106-0.364-2.013-0.662-2.594-0.836-1.217 1.526-3.836 5.354-4.295 6.26-0.172 0.667-0.29 2.136 0.072 2.901 0.335 0.707 0.627 0.871 1.694 1.388l0.255 0.124c0.072 0.036 0.156 0.083 0.25 0.142 0.146-0.015 0.464-0.075 1.019-0.313 0.707-0.302 1.033-0.546 1.321-0.76 0.557-0.414 1.565-1.057 3.122-0.54 0.258 0.086 0.526 0.183 0.801 0.281 0.812 0.293 1.733 0.625 2.366 0.625 0.184 0 0.262-0.031 0.563-0.163 0.47-0.204 1.188-0.526 2.282-0.453 1.884 0.126 7.279 3.436 8.029 7.184 0.54 2.702 0.516 15.172 0.505 17.638 0.571 2.018 1.266 4.335 1.475 4.843l0.537 0.941-1.139 2.043-1.158 0.003c-0.741 0.001-1.173-0.343-1.77-0.819-0.853-0.68-3.119-2.487-4.795-2.654-0.749-0.075-1.55-0.145-2.338-0.145-1.525 0-3.27 0.215-5.681 1.771-0.657 0.425-1.418 1.267-1.632 1.527l-1.534 1.866-1.806-2.164c-0.001 0.001-3.949-4.32-9.682-4.32-1.415 0-2.851 0.263-4.269 0.782-8.891 3.256-9.594 12.972-9.296 15.396 0.433 3.505 2.255 11.692 9.824 11.992 2.784 0.11 5.099 0.166 6.881 0.166 2.523 0 3.358-0.112 3.759-0.166l0.221-0.028c1.323-0.149 3.559-0.206 6.148-0.272 3.464-0.089 7.776-0.199 9.307-0.573 0.159-0.039 16.329-4.465 26.715-17.445 0.591-0.739 0.34-2.451 0.104-3.02L82.357 56.674z"></path><path d="M86.217 55.55l-0.143-0.354C83.121 47.767 75.519 29.749 68.738 22.9c-1.1-1.111-2.032-2.075-2.85-2.919-5.145-5.317-6.222-6.272-14.077-8.815-1.339-0.434-2.421-0.79-3.299-1.078C45.57 9.12 44.871 8.89 44.106 8.89c-0.146 0-0.278 0.01-0.402 0.028-0.861 0.123-1.363 0.349-4.226 4.449-1.744 2.497-2.723 4.081-2.912 4.708-0.335 1.121-0.712 3.785 0.264 5.849 0.952 2.009 2.339 2.682 3.563 3.275l0.143 0.07c0.289 0.194 0.955 0.603 2.04 0.603 0.785 0 1.656-0.209 2.663-0.641 0.946-0.405 1.535-0.793 1.921-1.072 0.128 0.045 0.259 0.092 0.391 0.14 1.121 0.403 2.391 0.861 3.721 0.861 1.025 0 1.71-0.299 2.163-0.496 0.22-0.096 0.286-0.122 0.358-0.127 1.063 0.315 4.138 2.507 4.432 3.976 0.365 1.831 0.455 11.47 0.426 17.116l-0.001 0.281 0.076 0.271c0.028 0.104 0.058 0.205 0.086 0.305-0.837-0.374-1.724-0.654-2.612-0.743-0.811-0.081-1.77-0.164-2.735-0.164-2.847 0-5.268 0.744-7.851 2.412-0.358 0.231-0.704 0.503-1.02 0.778-1.942-1.68-6.021-4.509-11.464-4.509-1.885 0-3.785 0.345-5.644 1.026-10.345 3.788-12.479 14.868-11.891 19.641 0.435 3.526 2.703 15.066 13.635 15.499 2.836 0.112 5.204 0.17 7.04 0.17 2.79 0 3.766-0.131 4.291-0.201l0.141-0.019c1.147-0.13 3.407-0.188 5.799-0.248 4.035-0.104 8.208-0.21 10.156-0.688 0.172-0.042 17.503-4.603 28.887-18.831C87.494 60.171 86.69 56.687 86.217 55.55zM82.421 60.108c-10.386 12.98-26.556 17.406-26.715 17.445-1.53 0.374-5.842 0.484-9.307 0.573-2.589 0.066-4.826 0.123-6.148 0.272l-0.221 0.028c-0.401 0.054-1.236 0.166-3.759 0.166-1.783 0-4.098-0.056-6.881-0.166-7.568-0.3-9.391-8.487-9.824-11.992-0.298-2.424 0.405-12.14 9.296-15.396 1.418-0.52 2.854-0.782 4.269-0.782 5.733 0 9.68 4.321 9.682 4.32l1.806 2.164 1.534-1.866c0.214-0.261 0.975-1.103 1.632-1.527 2.411-1.557 4.155-1.771 5.681-1.771 0.788 0 1.589 0.069 2.338 0.145 1.676 0.167 3.942 1.975 4.795 2.654 0.597 0.477 1.028 0.82 1.77 0.819l1.158-0.003 1.139-2.043-0.537-0.941c-0.209-0.508-0.903-2.825-1.475-4.843 0.011-2.465 0.035-14.936-0.505-17.638-0.75-3.749-6.146-7.058-8.029-7.184-1.095-0.073-1.812 0.249-2.282 0.453-0.302 0.131-0.38 0.163-0.563 0.163-0.633 0-1.553-0.332-2.366-0.625-0.275-0.099-0.542-0.195-0.801-0.281-1.556-0.518-2.565 0.126-3.122 0.54-0.288 0.214-0.614 0.458-1.321 0.76-0.555 0.238-0.874 0.298-1.019 0.313-0.094-0.06-0.177-0.106-0.25-0.142L42.14 23.6c-1.066-0.517-1.359-0.682-1.694-1.388-0.362-0.765-0.244-2.234-0.072-2.901 0.459-0.906 3.078-4.734 4.295-6.26 0.581 0.174 1.488 0.473 2.594 0.836 0.882 0.29 1.969 0.647 3.316 1.084 7.13 2.309 7.632 2.827 12.436 7.791 0.826 0.854 1.769 1.829 2.882 2.953 4.345 4.389 10.498 15.962 16.461 30.959l0.167 0.415C82.761 57.657 83.012 59.369 82.421 60.108z" fill="#000000" data-fill-palette-color="accent"></path></g></svg></g></svg></g><g><rect width="107.99912746897729" height="6.865972409032597" y="143.17831209327494" x="278.8005266422467" fill="#000000" data-fill-palette-color="accent"></rect><rect width="107.99912746897729" height="6.865972409032597" y="143.17831209327494" x="8.720345888775995" fill="#000000" data-fill-palette-color="accent"></rect><rect width="107.99912746897729" height="6.865972409032597" y="129.44636727520975" x="278.8005266422467" fill="#000000" data-fill-palette-color="accent"></rect><rect width="107.99912746897729" height="6.865972409032597" y="129.44636727520975" x="8.720345888775995" fill="#000000" data-fill-palette-color="accent"></rect></g></svg></g><defs></defs></svg><rect width="378.079308222448" height="247.2" fill="none" stroke="none" visibility="hidden"></rect></g></svg></g></svg>