<svg xmlns="http://www.w3.org/2000/svg" version="1.1" xmlns:xlink="http://www.w3.org/1999/xlink" xmlns:svgjs="http://svgjs.dev/svgjs" width="1500" height="268" viewBox="0 0 1500 268"><g transform="matrix(1,0,0,1,-0.9090909090909918,-0.11942850578023467)"><svg viewBox="0 0 396 71" data-background-color="#ffffff" preserveAspectRatio="xMidYMid meet" height="268" width="1500" xmlns="http://www.w3.org/2000/svg" xmlns:xlink="http://www.w3.org/1999/xlink"><g id="tight-bounds" transform="matrix(1,0,0,1,0.2400000000000091,0.03163964145670661)"><svg viewBox="0 0 395.52 70.93672071708659" height="70.93672071708659" width="395.52"><g><svg viewBox="0 0 436.11895655825276 78.21816499999998" height="70.93672071708659" width="395.52"><g><svg viewBox="0 0 436.11895655825276 78.21816499999998" height="78.21816499999998" width="436.11895655825276"><g id="textblocktransform"><svg viewBox="0 0 436.11895655825276 78.21816499999998" height="78.21816499999998" width="436.11895655825276" id="textblock"><g><svg viewBox="0 0 436.11895655825276 78.21816499999998" height="78.21816499999998" width="436.11895655825276"><g><svg><g></g><g></g></svg></g><g><svg><g><svg></svg></g><g></g></svg></g><g id="text-0"><svg viewBox="0 0 436.11895655825276 78.21816499999998" height="78.21816499999998" width="436.11895655825276"><g transform="matrix(1,0,0,1,0,0)"><svg width="345.3342469758712" viewBox="-2.62 -43.08 206.83 47.629999999999995" height="78.21816499999998" data-palette-color="#000000"><path d="M22.1 0.08L10.5 0.08 1.38-36.88 9.95-36.88 16.45-4.73 16.1-4.73 22.55-36.88 31.15-36.88 22.1 0.08ZM42.92 0L35.25 0 35.25-26.55 42.92-26.55 42.92 0ZM39.07-30.88L39.07-30.88Q37.27-30.88 35.94-31.83 34.6-32.77 34.6-34.5L34.6-34.5Q34.6-36.25 35.94-37.2 37.27-38.15 39.07-38.15L39.07-38.15Q40.9-38.15 42.23-37.2 43.57-36.25 43.57-34.5L43.57-34.5Q43.57-32.75 42.23-31.81 40.9-30.88 39.07-30.88ZM61.7 0.55L61.7 0.55Q60.17 0.55 58.56 0.29 56.95 0.03 55.56-0.76 54.17-1.55 53.32-3.08 52.47-4.6 52.47-7.1L52.47-7.1Q52.47-7.65 52.47-8.22 52.47-8.8 52.47-9.38L52.47-9.38 52.47-20.55 46.35-20.55 46.35-26.55 48.07-26.55Q49.57-26.55 50.46-26.68 51.35-26.8 51.78-27.31 52.22-27.83 52.35-28.93 52.47-30.03 52.47-31.95L52.47-31.95 52.47-35.3 60.25-35.3 60.25-26.55 67.97-26.55 67.97-20.55 60.25-20.55 60.25-11Q60.25-10.55 60.25-10.13 60.25-9.7 60.25-9.3L60.25-9.3Q60.25-7.58 60.66-6.5 61.07-5.43 62.72-5.43L62.72-5.43Q63.55-5.43 64.28-5.58 65.02-5.73 65.4-5.88L65.4-5.88 65.4-0.05Q64.87 0.18 63.92 0.36 62.97 0.55 61.7 0.55ZM91.72 0.08L80.12 0.08 70.99-36.88 79.57-36.88 86.07-4.73 85.72-4.73 92.17-36.88 100.77-36.88 91.72 0.08ZM112.62 0.55L112.62 0.55Q109.72 0.55 107.45-0.38 105.19-1.3 103.92-3.05 102.64-4.8 102.64-7.3L102.64-7.3Q102.64-10.13 104.19-11.9 105.74-13.68 108.3-14.61 110.87-15.55 113.87-15.85L113.87-15.85Q118.24-16.28 119.9-16.63 121.57-16.98 121.57-17.85L121.57-17.85Q121.57-17.85 121.57-17.86 121.57-17.88 121.57-17.9L121.57-17.9Q121.57-19.38 120.15-20.23 118.74-21.08 116.22-21.08L116.22-21.08Q113.54-21.08 112.13-20.11 110.72-19.15 110.72-17.18L110.72-17.18 103.09-17.18Q103.09-20.38 104.83-22.58 106.57-24.78 109.54-25.91 112.52-27.05 116.27-27.05L116.27-27.05Q119.77-27.05 122.74-25.99 125.72-24.93 127.53-22.8 129.34-20.68 129.34-17.4L129.34-17.4Q129.34-16.88 129.34-16.36 129.34-15.85 129.34-15.33L129.34-15.33 129.34-5.93Q129.34-4.9 129.4-3.96 129.47-3.03 129.69-2.25L129.69-2.25Q129.94-1.38 130.32-0.8 130.69-0.23 130.94 0L130.94 0 123.32 0Q123.14-0.18 122.78-0.73 122.42-1.28 122.17-2L122.17-2Q121.87-2.88 121.73-3.76 121.59-4.65 121.59-5.85L121.59-5.85 123.19-4.75Q122.49-3.1 120.93-1.91 119.37-0.73 117.23-0.09 115.09 0.55 112.62 0.55ZM114.69-5.25L114.69-5.25Q116.52-5.25 118.1-5.91 119.69-6.58 120.69-8 121.69-9.43 121.69-11.73L121.69-11.73 121.69-14.4 123.62-12.53Q121.97-11.93 119.8-11.54 117.64-11.15 115.49-10.93L115.49-10.93Q112.94-10.68 111.68-10.06 110.42-9.45 110.42-8L110.42-8Q110.42-6.63 111.49-5.94 112.57-5.25 114.69-5.25ZM144.44 0.5L144.44 0.5Q141.61 0.5 139.79-0.41 137.96-1.33 136.91-2.88 135.86-4.42 135.44-6.33 135.01-8.22 135.01-10.18L135.01-10.18Q135.01-11.08 135.01-12.08 135.01-13.08 135.01-14.13L135.01-14.13 135.01-26.55 142.76-26.55 142.76-15.35Q142.76-14.5 142.76-13.7 142.76-12.9 142.76-12.23L142.76-12.23Q142.76-10.55 143.14-9.15 143.51-7.75 144.53-6.9 145.54-6.05 147.41-6.05L147.41-6.05Q149.24-6.05 150.51-7.09 151.79-8.13 152.46-9.75 153.14-11.38 153.14-13.1L153.14-13.1 155.31-11.33Q155.31-8.83 154.55-6.68 153.79-4.53 152.39-2.91 150.99-1.3 148.98-0.4 146.96 0.5 144.44 0.5ZM160.89 0L153.14 0 153.14-26.55 160.89-26.55 160.89 0ZM167.06-39.08L174.71-39.08 174.71 0 167.06 0 167.06-39.08ZM193.93 0.55L193.93 0.55Q192.41 0.55 190.8 0.29 189.18 0.03 187.8-0.76 186.41-1.55 185.56-3.08 184.71-4.6 184.71-7.1L184.71-7.1Q184.71-7.65 184.71-8.22 184.71-8.8 184.71-9.38L184.71-9.38 184.71-20.55 178.58-20.55 178.58-26.55 180.31-26.55Q181.81-26.55 182.7-26.68 183.58-26.8 184.02-27.31 184.46-27.83 184.58-28.93 184.71-30.03 184.71-31.95L184.71-31.95 184.71-35.3 192.48-35.3 192.48-26.55 200.21-26.55 200.21-20.55 192.48-20.55 192.48-11Q192.48-10.55 192.48-10.13 192.48-9.7 192.48-9.3L192.48-9.3Q192.48-7.58 192.9-6.5 193.31-5.43 194.96-5.43L194.96-5.43Q195.78-5.43 196.52-5.58 197.26-5.73 197.63-5.88L197.63-5.88 197.63-0.05Q197.11 0.18 196.16 0.36 195.21 0.55 193.93 0.55Z" opacity="1" transform="matrix(1,0,0,1,0,0)" fill="#000000" class="wordmark-text-0" data-fill-palette-color="primary"></path></svg></g><g><svg xmlns="http://www.w3.org/2000/svg" xmlns:xlink="http://www.w3.org/1999/xlink" version="1.1" x="360.47099697587123" y="0" viewBox="15.50571974488209 8.89 71.28406181580729 73.706" enable-background="new 0 0 100 100" xml:space="preserve" height="78.21816499999998" width="75.64795958238153" class="icon-dxe-0" data-fill-palette-color="accent" id="dxe-0"><g fill="#5dbb63" data-fill-palette-color="accent"><path fill="none" d="M82.357 56.674C76.394 41.677 70.241 30.104 65.896 25.715 64.783 24.591 63.84 23.616 63.014 22.762 58.21 17.798 57.708 17.28 50.578 14.971A843 843 0 0 1 47.262 13.887 122 122 0 0 0 44.668 13.051C43.451 14.577 40.832 18.405 40.373 19.311 40.201 19.978 40.083 21.447 40.445 22.212 40.78 22.919 41.072 23.083 42.139 23.6L42.394 23.724A3 3 0 0 1 42.644 23.866C42.79 23.851 43.108 23.791 43.663 23.553 44.37 23.251 44.696 23.007 44.984 22.793 45.541 22.379 46.549 21.736 48.106 22.253 48.364 22.339 48.632 22.436 48.907 22.534 49.719 22.827 50.64 23.159 51.273 23.159 51.457 23.159 51.535 23.128 51.836 22.996 52.306 22.792 53.024 22.47 54.118 22.543 56.002 22.669 61.397 25.979 62.147 29.727 62.687 32.429 62.663 44.899 62.652 47.365 63.223 49.383 63.918 51.7 64.127 52.208L64.664 53.149 63.525 55.192 62.367 55.195C61.626 55.196 61.194 54.852 60.597 54.376 59.744 53.696 57.478 51.889 55.802 51.722 55.053 51.647 54.252 51.577 53.464 51.577 51.939 51.577 50.194 51.792 47.783 53.348 47.126 53.773 46.365 54.615 46.151 54.875L44.617 56.741 42.811 54.577C42.81 54.578 38.862 50.257 33.129 50.257 31.714 50.257 30.278 50.52 28.86 51.039 19.969 54.295 19.266 64.011 19.564 66.435 19.997 69.94 21.819 78.127 29.388 78.427 32.172 78.537 34.487 78.593 36.269 78.593 38.792 78.593 39.627 78.481 40.028 78.427L40.249 78.399C41.572 78.25 43.808 78.193 46.397 78.127 49.861 78.038 54.173 77.928 55.704 77.554 55.863 77.515 72.033 73.089 82.419 60.109 83.01 59.37 82.759 57.658 82.523 57.089z"></path><path d="M86.217 55.55L86.074 55.196C83.121 47.767 75.519 29.749 68.738 22.9 67.638 21.789 66.706 20.825 65.888 19.981 60.743 14.664 59.666 13.709 51.811 11.166 50.472 10.732 49.39 10.376 48.512 10.088 45.57 9.12 44.871 8.89 44.106 8.89 43.96 8.89 43.828 8.9 43.704 8.918 42.843 9.041 42.341 9.267 39.478 13.367 37.734 15.864 36.755 17.448 36.566 18.075 36.231 19.196 35.854 21.86 36.83 23.924 37.782 25.933 39.169 26.606 40.393 27.199L40.536 27.269C40.825 27.463 41.491 27.872 42.576 27.872 43.361 27.872 44.232 27.663 45.239 27.231A9.6 9.6 0 0 0 47.16 26.159L47.551 26.299C48.672 26.702 49.942 27.16 51.272 27.16 52.297 27.16 52.982 26.861 53.435 26.664 53.655 26.568 53.721 26.542 53.793 26.537 54.856 26.852 57.931 29.044 58.225 30.513 58.59 32.344 58.68 41.983 58.651 47.629L58.65 47.91 58.726 48.181C58.754 48.285 58.784 48.386 58.812 48.486 57.975 48.112 57.088 47.832 56.2 47.743 55.389 47.662 54.43 47.579 53.465 47.579 50.618 47.579 48.197 48.323 45.614 49.991A9 9 0 0 0 44.594 50.769C42.652 49.089 38.573 46.26 33.13 46.26 31.245 46.26 29.345 46.605 27.486 47.286 17.141 51.074 15.007 62.154 15.595 66.927 16.03 70.453 18.298 81.993 29.23 82.426 32.066 82.538 34.434 82.596 36.27 82.596 39.06 82.596 40.036 82.465 40.561 82.395L40.702 82.376C41.849 82.246 44.109 82.188 46.501 82.128 50.536 82.024 54.709 81.918 56.657 81.44 56.829 81.398 74.16 76.837 85.544 62.609 87.494 60.171 86.69 56.687 86.217 55.55M82.421 60.108C72.035 73.088 55.865 77.514 55.706 77.553 54.176 77.927 49.864 78.037 46.399 78.126 43.81 78.192 41.573 78.249 40.251 78.398L40.03 78.426C39.629 78.48 38.794 78.592 36.271 78.592 34.488 78.592 32.173 78.536 29.39 78.426 21.822 78.126 19.999 69.939 19.566 66.434 19.268 64.01 19.971 54.294 28.862 51.038A12.4 12.4 0 0 1 33.131 50.256C38.864 50.256 42.811 54.577 42.813 54.576L44.619 56.74 46.153 54.874C46.367 54.613 47.128 53.771 47.785 53.347 50.196 51.79 51.94 51.576 53.466 51.576 54.254 51.576 55.055 51.645 55.804 51.721 57.48 51.888 59.746 53.696 60.599 54.375 61.196 54.852 61.627 55.195 62.369 55.194L63.527 55.191 64.666 53.148 64.129 52.207C63.92 51.699 63.226 49.382 62.654 47.364 62.665 44.899 62.689 32.428 62.149 29.726 61.399 25.977 56.003 22.668 54.12 22.542 53.025 22.469 52.308 22.791 51.838 22.995 51.536 23.126 51.458 23.158 51.275 23.158 50.642 23.158 49.722 22.826 48.909 22.533A35 35 0 0 0 48.108 22.252C46.552 21.734 45.543 22.378 44.986 22.792 44.698 23.006 44.372 23.25 43.665 23.552 43.11 23.79 42.791 23.85 42.646 23.865A3 3 0 0 0 42.396 23.723L42.14 23.6C41.074 23.083 40.781 22.918 40.446 22.212 40.084 21.447 40.202 19.978 40.374 19.311 40.833 18.405 43.452 14.577 44.669 13.051 45.25 13.225 46.157 13.524 47.263 13.887 48.145 14.177 49.232 14.534 50.579 14.971 57.709 17.28 58.211 17.798 63.015 22.762 63.841 23.616 64.784 24.591 65.897 25.715 70.242 30.104 76.395 41.677 82.358 56.674L82.525 57.089C82.761 57.657 83.012 59.369 82.421 60.108" fill="#5dbb63" data-fill-palette-color="accent"></path></g></svg></g></svg></g></svg></g></svg></g></svg></g><g></g></svg></g><defs></defs></svg><rect width="395.52" height="70.93672071708659" fill="none" stroke="none" visibility="hidden"></rect></g></svg></g></svg>