<!DOCTYPE svg PUBLIC "-//W3C//DTD SVG 1.1//EN" "http://www.w3.org/Graphics/SVG/1.1/DTD/svg11.dtd">
<!-- Uploaded to: SVG Repo, www.svgrepo.com, Transformed by: SVG Repo Mixer Tools -->
<svg height="800px" width="800px" version="1.1" id="Layer_1" xmlns="http://www.w3.org/2000/svg" xmlns:xlink="http://www.w3.org/1999/xlink" viewBox="0 0 511.997 511.997" xml:space="preserve" fill="#000000">
<g id="SVGRepo_bgCarrier" stroke-width="0"/>
<g id="SVGRepo_tracerCarrier" stroke-linecap="round" stroke-linejoin="round"/>
<g id="SVGRepo_iconCarrier"> <circle style="fill:#FAD24D;" cx="255.999" cy="255.999" r="255.999"/> <path style="fill:#2E854B;" d="M43.547,181.59c68.524-9.004,94.423,13.094,134.935,61.958c2.373-0.283,39.151-18.621,73.738-3.799 c34.587,14.823,46.815,59.734,65.756,57.392l16.911-2.091c-17.876-47.128-16.578-103.176-18.117-152.564 c-24.701,3.287-26.983-11.127-43.67-9.5c-15.583,1.519-33.443-12.932-33.443-12.932s-27.368-36.486-25.847-46.747 c1.521-10.264,17.865-11.021,17.865-11.021s8.49-18.332,14.568-22.888c3.89-2.916,18.19,2.945,31.908,3.051 c8.039,0.06,14.686,9.32,20.695,9.428c21.981,0.383,20.135,7.968,31.654,13.451c15.961,7.599,34.207,69.832,34.207,69.832 c22.5,45.006,50.53,72.982,69.956,134.243c16.8,52.99,24.323,103.385-1.521,113.266c-25.844,9.886-81.342,27.368-124.669,35.731 c-43.329,8.363-144.818,0.003-171.043-19.764c-10.923,10.298-19.017,40.379-26.645,68.2C43.87,420.654,0.005,343.458,0.005,256.003 c0-27.043,4.205-53.1,11.977-77.57l31.57,3.161L43.547,181.59z"/> <g> <path style="fill:#2E854B;" d="M43.547,181.59c44.948-5.907,71.556,1.571,95.978,21.207 c-59.713-22.285-102.966-7.363-102.966-7.363l-27.177-8.299c0.815-2.922,1.682-5.823,2.597-8.703l31.57,3.158h-0.002V181.59z M110.518,466.651c-2.122-1.466-4.221-2.964-6.296-4.496c9.385-57.643,13.354-114.814,13.354-114.814 c23.568-12.163,44.163,9.259,44.163,9.259c58.996,37.173,116.511,54.202,185.748,29.632c23.565-8.36,80.579-17.485,92.744-32.688 c12.076-15.092-13.341-105.557-13.705-106.848c2.84,7.064,5.566,14.586,8.136,22.7c16.8,52.99,24.323,103.385-1.521,113.266 c-25.844,9.886-81.342,27.368-124.669,35.731c-43.329,8.363-144.818,0.003-171.043-19.764c-3.567,3.365-16.107,37.396-26.906,68.02 L110.518,466.651z M309.365,295.001c2.781,1.695,5.611,2.51,8.611,2.141l16.911-2.091c6.431,7.441,14.854,12.516,14.854,12.516 c-21.805,5.59-24.195,1.212-40.376-12.564V295.001z"/> <path style="fill:#2E854B;" d="M309.04,91.934c0,0-2.571,13.441,4.15,22.928l-17.546,3.412 c-13.868-11.174-28.386-21.58-43.01-21.249c-1.293,0.029-2.41-0.37-3.396-1.207l-9.829-8.378 c18.872,1.424,13.789-14.744,9.784-16.207c-0.865-0.314-4.252-2.557-10.345-4.737c-3.177-1.139-12.711-3.36-12.721-3.362 c3.093-0.738,5.542-0.85,5.542-0.85s0.28-0.63,1.372-2.817c4.701,2.906,23.14,11.717,22.526,17.317l-1.466,13.354 c4.289,5.663,35.24,16.837,41.596,16.478c7.242-0.409,9.453-5.432,8.331-8.656c-0.97-2.791-4.498-3.473-8.821-7.997l10.269,1.724 c0.498-2.29,2.508,0.312,3.567,0.255L309.04,91.934z"/> <path style="fill:#2E854B;" d="M327.81,132.228c-6.72-0.396-4.886,6.277-11.04,10.256c0.343,11.061,0.548,22.456,0.855,34.009 c3.331-22.914-5.437-31.888,10.731-36.358c17.821-4.923,26.723-18.912,17.842-39.644 C347.023,113.909,349.52,133.505,327.81,132.228z"/> </g> </g>
</svg>