<!DOCTYPE svg PUBLIC "-//W3C//DTD SVG 1.1//EN" "http://www.w3.org/Graphics/SVG/1.1/DTD/svg11.dtd">
<!-- Uploaded to: SVG Repo, www.svgrepo.com, Transformed by: SVG Repo Mixer Tools -->
<svg version="1.1" id="Capa_1" xmlns="http://www.w3.org/2000/svg" xmlns:xlink="http://www.w3.org/1999/xlink" viewBox="-4.91 -4.91 58.90 58.90" xml:space="preserve" width="800px" height="800px" fill="#2E854B" stroke="#2E854B" stroke-width="0.0004907900000000001">
<g id="SVGRepo_bgCarrier" stroke-width="0">
<rect x="-4.91" y="-4.91" width="58.90" height="58.90" rx="29.45" fill="#C0E974 " strokewidth="0"/>
</g>
<g id="SVGRepo_tracerCarrier" stroke-linecap="round" stroke-linejoin="round" stroke="#CCCCCC" stroke-width="0.098158"/>
<g id="SVGRepo_iconCarrier"> <g> <g> <g> <path style="fill:#2E854B;" d="M7.06,31.878c0.353,0,0.442,0.05,0.45,0.056l0.062,0.052h0.08c3.954,0,6.138-4.588,6.138-7.748 c0.076-1.201-0.254-2.202-0.983-2.979c-0.775-0.828-1.999-1.346-3.416-1.467c0.221-0.066,0.435-0.149,0.642-0.248 c0.442-0.208,0.849-0.49,1.218-0.851c0.366-0.37,0.701-0.799,0.938-1.435c-0.644-0.211-1.19-0.221-1.706-0.163 C9.97,17.157,9.497,17.3,9.056,17.512c-0.438,0.212-0.846,0.494-1.215,0.854c-0.359,0.362-0.687,0.784-0.924,1.396 c-0.337-0.599-0.88-1.74-1.12-3.257l-0.741,0.116c0.223,1.409,0.685,2.514,1.046,3.213c-0.348-0.045-0.698-0.07-1.048-0.07 c-1.688,0-3.168,0.544-4.06,1.494c-0.729,0.775-1.06,1.778-0.983,2.966c0,3.068,2.004,7.468,5.796,7.75 c0.035,0,0.129-0.012,0.258-0.025C6.313,31.921,6.723,31.878,7.06,31.878z M7.289,19.9c-0.087,0.016-0.173,0.032-0.26,0.052 C7.002,19.91,6.974,19.86,6.944,19.81C7.062,19.846,7.174,19.875,7.289,19.9z M5.82,31.522c-3.451-0.254-5.358-4.478-5.358-7.312 c-0.069-1.072,0.221-1.963,0.861-2.646c0.806-0.858,2.166-1.351,3.732-1.351c0.443,0,0.886,0.04,1.322,0.116 c0.124,0.206,0.207,0.322,0.22,0.34l0.317-0.231l0.039-0.009c0.587-0.144,1.192-0.216,1.795-0.216 c1.564,0,2.926,0.492,3.731,1.353c0.641,0.682,0.932,1.572,0.862,2.659c0,3.034-2.138,7.26-5.624,7.312 c-0.136-0.074-0.345-0.106-0.657-0.106c-0.36,0-0.785,0.046-1.041,0.073C5.917,31.514,5.841,31.522,5.82,31.522z"/> <path style="fill:#2E854B;" d="M8.763,26.301c0.128-0.189,0.236-0.408,0.324-0.662c0.081-0.255,0.146-0.537,0.156-0.905 c-0.248,0.011-0.437,0.11-0.609,0.234c-0.17,0.128-0.317,0.288-0.444,0.479c-0.128,0.19-0.235,0.41-0.323,0.663 c-0.083,0.257-0.148,0.538-0.155,0.904c0.246-0.013,0.434-0.11,0.606-0.236C8.488,26.652,8.636,26.49,8.763,26.301z"/> <path style="fill:#2E854B;" d="M6.36,25.272c-0.125-0.212-0.277-0.428-0.529-0.646c-0.15,0.198-0.204,0.402-0.226,0.604 c-0.022,0.203-0.005,0.409,0.046,0.619c0.052,0.208,0.135,0.415,0.254,0.632c0.125,0.209,0.277,0.423,0.527,0.644 c0.147-0.199,0.203-0.401,0.226-0.604c0.021-0.204,0.002-0.412-0.046-0.618C6.564,25.693,6.478,25.483,6.36,25.272z"/> <polygon style="fill:#2E854B;" points="28.481,25.999 49.079,14.494 48.02,12.596 27.166,24.246 26.416,24.246 26.416,24.663 5.817,36.171 6.876,38.069 26.416,27.156 26.416,40.551 13.17,40.551 13.17,43.269 26.416,43.269 28.481,43.269 41.727,43.269 41.727,40.551 28.481,40.551 "/> <path style="fill:#2E854B;" d="M31.613,13.745c0.593,0,10.577,0,11.062,0s0.365-1.199,0.365-1.199H31.249 C31.249,12.545,31.015,13.745,31.613,13.745z"/> <rect x="31.064" y="10.083" style="fill:#2E854B;" width="12.126" height="0.893"/> <path style="fill:#2E854B;" d="M36.927,11.521c0.094-0.002,0.161,0.036,0.192,0.076c0.069-0.012,0.175-0.032,0.347-0.074 c0.396-0.092,0.564-0.187,0.696-0.267H36.76c0.044,0.061,0.081,0.122,0.105,0.168C36.887,11.46,36.913,11.511,36.927,11.521z"/> <path style="fill:#2E854B;" d="M35.956,11.256h-0.554c0.075,0.07,0.104,0.099,0.255,0.103 C35.767,11.369,35.863,11.317,35.956,11.256z"/> <polygon style="fill:#2E854B;" points="41.011,11.256 40.6,11.256 40.86,11.341 "/> <path style="fill:#2E854B;" d="M32.617,11.748c0.318-0.104,0.597-0.262,0.868-0.412c0.048-0.029,0.095-0.056,0.144-0.08h-2.054 C31.696,11.453,32.058,11.927,32.617,11.748z"/> <path style="fill:#2E854B;" d="M31.201,11.336l0.164-0.08h-0.667v0.892h1.636C31.753,12.127,31.354,11.643,31.201,11.336z"/> <path style="fill:#2E854B;" d="M43.558,11.256H42.26l0.532,0.284l-0.172,0.321l-1.005-0.537l-0.713,0.418l-0.9-0.305h-1.219 c-0.223,0-0.288,0.04-0.418,0.12c-0.146,0.09-0.349,0.212-0.817,0.322c-0.499,0.116-0.635,0.135-0.729,0.014l-0.025-0.033 c-0.135-0.049-0.197-0.169-0.248-0.263c-0.036-0.068-0.078-0.143-0.146-0.223c0,0.008-0.069,0.059-0.116,0.094 c-0.147,0.112-0.355,0.267-0.636,0.257c-0.292-0.008-0.401-0.114-0.499-0.206c-0.083-0.076-0.168-0.156-0.443-0.21 c-0.322-0.062-0.655,0.126-1.042,0.344c-0.271,0.154-0.582,0.328-0.937,0.44c-0.106,0.036-0.209,0.052-0.311,0.055h11.139v-0.892 L43.558,11.256L43.558,11.256z"/> <path style="fill:#2E854B;" d="M32.419,12.148h-0.085c0.014,0,0.025,0.006,0.038,0.006 C32.386,12.154,32.402,12.148,32.419,12.148z"/> <path style="fill:#2E854B;" d="M31.53,11.174l-0.166,0.082h0.21C31.549,11.212,31.535,11.18,31.53,11.174z"/> <path style="fill:#2E854B;" d="M37.904,5.826c-0.146-0.01-0.995-0.016-1.145-0.016c-2.579,0-4.561,1.711-5.56,3.923L42.965,9.7 C42.054,7.543,40.352,5.993,37.904,5.826z"/> </g> </g> </g> </g>
</svg>