<!DOCTYPE svg PUBLIC "-//W3C//DTD SVG 1.1//EN" "http://www.w3.org/Graphics/SVG/1.1/DTD/svg11.dtd">
<!-- Uploaded to: SVG Repo, www.svgrepo.com, Transformed by: SVG Repo Mixer Tools -->
<svg fill="#2E854B" width="800px" height="800px" viewBox="0 0 512 512" version="1.1" xml:space="preserve" xmlns="http://www.w3.org/2000/svg" xmlns:xlink="http://www.w3.org/1999/xlink">
<g id="SVGRepo_bgCarrier" stroke-width="0"/>
<g id="SVGRepo_tracerCarrier" stroke-linecap="round" stroke-linejoin="round"/>
<g id="SVGRepo_iconCarrier"> <g id="_x35_86_x2C__Medicine_x2C__pills_x2C__tablets"> <g> <g> <g> <g> <path d="M128.014,260.957H24.681c-5.523,0-10-4.478-10-10v-88.333c0-34.003,27.664-61.667,61.667-61.667 c34.003,0,61.667,27.664,61.667,61.667v88.333C138.014,256.479,133.537,260.957,128.014,260.957z M34.681,240.957h83.333 v-78.333c0-22.975-18.691-41.667-41.667-41.667s-41.667,18.691-41.667,41.667V240.957z"/> </g> <g> <path d="M76.348,400.956c-34.003,0-61.667-27.664-61.667-61.667v-88.333c0-5.523,4.477-10,10-10h103.333 c5.523,0,10,4.477,10,10v88.333C138.014,373.292,110.351,400.956,76.348,400.956z M34.681,260.957v78.332 c0,22.976,18.692,41.667,41.667,41.667s41.667-18.691,41.667-41.667v-78.332H34.681z"/> </g> <g> <path d="M252.764,423.641c-2.652,0-5.196-1.054-7.071-2.929l-62.183-62.184c-11.647-11.647-18.062-27.133-18.062-43.604 c0-16.473,6.415-31.958,18.062-43.605c11.647-11.646,27.133-18.062,43.604-18.062s31.957,6.415,43.604,18.062l62.184,62.183 c1.875,1.876,2.929,4.419,2.929,7.071s-1.054,5.195-2.929,7.071l-73.067,73.068 C257.959,422.587,255.416,423.641,252.764,423.641z M227.114,273.257c-11.129,0-21.593,4.334-29.463,12.204 c-7.87,7.869-12.204,18.333-12.204,29.463c0,11.129,4.334,21.593,12.204,29.462l55.112,55.112l58.925-58.926l-55.112-55.111 C248.707,277.591,238.244,273.257,227.114,273.257z"/> </g> <g> <path d="M351.479,500.956c-16.472,0-31.957-6.415-43.604-18.062l-62.183-62.183c-3.905-3.905-3.905-10.237,0-14.143 l73.067-73.068c1.876-1.875,4.419-2.929,7.071-2.929s5.195,1.054,7.071,2.929l62.183,62.184 c11.646,11.647,18.062,27.133,18.062,43.604c0,16.473-6.415,31.958-18.062,43.605 C383.438,494.541,367.952,500.956,351.479,500.956z M266.905,413.641l55.112,55.111c7.869,7.87,18.333,12.204,29.462,12.204 c11.13,0,21.594-4.334,29.463-12.204c7.87-7.869,12.204-18.333,12.204-29.463c0-11.129-4.334-21.593-12.204-29.462 l-55.111-55.112L266.905,413.641z"/> </g> <g> <path d="M411.981,180.057c-2.56,0-5.118-0.976-7.071-2.929l-73.068-73.067c-1.875-1.875-2.929-4.419-2.929-7.071 s1.054-5.196,2.929-7.071l60.9-60.9c11.647-11.647,27.133-18.062,43.605-18.062c16.472,0,31.957,6.415,43.604,18.062 c24.043,24.043,24.043,63.166,0,87.209l-60.899,60.9C417.1,179.08,414.541,180.057,411.981,180.057z M353.056,96.989 l58.926,58.925l53.828-53.828c16.246-16.246,16.246-42.68,0-58.926c-7.869-7.87-18.333-12.204-29.462-12.204 c-11.13,0-21.594,4.334-29.463,12.204L353.056,96.989z"/> </g> <g> <path d="M314.547,256.089c-16.472,0-31.957-6.415-43.604-18.062c-24.043-24.043-24.043-63.166,0-87.209l60.899-60.9 c3.906-3.904,10.236-3.905,14.143,0l73.068,73.067c1.875,1.875,2.929,4.419,2.929,7.071s-1.054,5.196-2.929,7.071l-60.9,60.9 C346.505,249.675,331.02,256.089,314.547,256.089z M338.913,111.131l-53.828,53.828c-16.246,16.246-16.246,42.68,0,58.926 c7.869,7.87,18.333,12.204,29.462,12.204c11.13,0,21.594-4.334,29.463-12.204l53.829-53.829L338.913,111.131z"/> </g> </g> </g> </g> </g> <g id="Layer_1"/> </g>
</svg>