<?xml version="1.0" encoding="iso-8859-1"?>
<!-- Uploaded to: SVG Repo, www.svgrepo.com, Generator: SVG Repo Mixer Tools -->
<svg height="800px" width="800px" version="1.1" id="Layer_1" xmlns="http://www.w3.org/2000/svg" xmlns:xlink="http://www.w3.org/1999/xlink" 
	 viewBox="0 0 512 512" xml:space="preserve">
<path style="fill:#4A4E34;" d="M281.7,281.859l38.994,203.738c1.819,9.132-5.148,17.65-14.438,17.65H261.84
	c-7.006,0-13.041-4.948-14.43-11.832l-39.323-194.797L281.7,281.859z"/>
<path style="fill:#67703A;" d="M246.214,348.579l27.3,137.018c1.819,9.132-5.148,17.65-14.438,17.65h-44.417
	c-7.006,0-13.041-4.948-14.43-11.832l-39.323-194.797L246.214,348.579z"/>
<path style="fill:#899D4D;" d="M399.959,305.94c2.795,7.765,4.17,16.211,3.81,25.022c-1.383,33.791-28.673,61.28-62.374,62.813
	c-24.033,1.094-45.366-10.814-57.616-29.292c-11.73,17.694-31.787,29.362-54.567,29.362c-19.563,0-37.111-8.611-49.11-22.247
	c-12.444,14.142-30.859,22.88-51.301,22.211c-34.43-1.126-62.395-29.39-63.269-63.911c-0.209-8.259-1.182-26.821,12.622-40.813
	c-14.959-12.03-24.546-30.497-24.546-51.219c0-0.685,0-3.175,0-3.748c0-17.214,6.619-32.874,17.434-44.581
	c-10.815-11.707-17.434-27.366-17.434-44.58c0-13.715,4.201-26.442,11.377-36.973c11.483-18.824,31.455-31.403,55.095-31.403
	c3.98,0,7.869,0.376,11.653,1.058c4.755-31.565,31.928-55.759,64.74-55.759c31.17,0,57.234,21.839,63.844,51.08
	c11.923-11.457,28.145-18.447,46.008-18.256c34.602,0.372,63.28,28.202,64.706,62.861c0.6,14.571-3.547,28.141-11.009,39.294
	c10.634,3.739,20.007,10.157,27.332,18.435c1.836-0.155,3.687-0.252,5.562-0.252c36.164,0,65.48,29.389,65.48,65.641
	C458.393,274.549,432.808,302.416,399.959,305.94z"/>
<path style="fill:#4A4E34;" d="M342.811,185.983c0,36.252-29.316,65.641-65.48,65.641s-65.48-29.389-65.48-65.641
	s29.316-65.641,65.48-65.641S342.811,149.73,342.811,185.983z"/>
<path style="fill:#67703A;" d="M363.633,280.501c0,35.319-28.562,63.951-63.794,63.951c-16.342,0-31.243-6.167-42.53-16.296
	c-11.287,10.129-26.187,16.296-42.53,16.296c-35.233,0-63.794-28.633-63.794-63.951c0-9.6,2.123-18.698,5.904-26.869
	c-22.272-9.977-37.802-32.363-37.802-58.4c0-35.319,28.562-63.951,63.794-63.951s63.794,28.633,63.794,63.951
	c0,9.6-2.123,18.698-5.904,26.869c6.073,2.72,11.646,6.355,16.537,10.744c11.287-10.13,26.188-16.296,42.53-16.296
	C335.071,216.549,363.633,245.182,363.633,280.501z"/>
<path style="fill:#FF4328;" d="M367.858,116.964L367.858,116.964c34.056,0,65.887,28.506,61.926,62.815l-28.591,247.475
	c-11.164,96.625-55.221,99.112-66.348,2.808L305.932,179.78C301.968,145.466,333.798,116.964,367.858,116.964L367.858,116.964z"/>
<path style="fill:#C13421;" d="M362.013,427.254c-2.875,24.878-7.932,43.498-14.044,55.817
	c17.599,36.425,44.791,17.163,53.223-55.817l5.555-48.085l23.036-199.389c3.875-33.557-26.492-61.544-59.688-62.756v15.081
	c13.977,11.58,22.696,28.739,20.51,47.675L362.013,427.254z"/>
<path d="M467.145,240.683c0-23.247-10.651-44.779-28.79-58.829l0.124-1.071c1.988-17.22-3.637-34.246-15.839-47.938
	c-10.669-11.972-25.398-20.174-41.065-23.259l25.437-95.833c1.55-5.839-1.915-11.831-7.74-13.384
	c-5.821-1.554-11.802,1.92-13.352,7.759l-20.502,77.234l-12.056-45.417c-1.55-5.84-7.533-9.314-13.352-7.76
	c-5.825,1.554-9.29,7.547-7.74,13.385l1.607,6.053c-8.665-3.606-17.975-5.571-27.459-5.674
	c-14.987-0.116-29.436,4.145-41.712,12.304c-4.744-11.067-12.156-20.949-21.588-28.601c-13.142-10.658-29.708-16.527-46.645-16.527
	c-17.878,0-35.151,6.46-48.637,18.191c-11.179,9.725-19.164,22.524-23.002,36.667c-27.37-1.783-52.751,11.706-67.207,35.254
	c-8.356,12.341-12.773,26.762-12.773,41.717c0,16.194,5.214,31.759,14.813,44.581c-9.6,12.821-14.813,28.388-14.813,44.581v3.748
	c0,19.709,7.662,38.271,21.28,52.126c-10.04,14.835-9.584,31.558-9.371,39.321l0.021,0.805c0.996,39.336,32.503,71.155,71.73,72.438
	c15.236,0.5,29.975-3.665,42.484-11.705l20.651,102.295C193.855,504.071,203.531,512,214.658,512h44.418
	c0.573,0,1.143-0.027,1.71-0.069c0.346,0.042,0.696,0.069,1.052,0.069h44.417c7.051,0,13.661-3.129,18.138-8.586
	c4.487-5.468,6.268-12.586,4.897-19.461l-16.434-85.867c3.186,1.164,6.462,2.113,9.812,2.832l3.483,30.15
	c5.779,50.018,20.827,78.705,41.286,78.705c20.992,0,36.464-29.71,42.45-81.514l13.852-119.9
	C449.98,296.375,467.145,270.068,467.145,240.683z M208.807,489.683l-20.008-99.112c11.925,7.763,25.936,12.028,40.413,12.028
	c6.282,0,12.446-0.805,18.378-2.323l17.34,87.033c0.485,2.436-0.574,4.181-1.25,5.004c-0.668,0.815-2.156,2.183-4.604,2.183h-44.418
	C211.831,494.495,209.371,492.471,208.807,489.683z M312.111,487.308c0.485,2.436-0.574,4.18-1.25,5.004
	c-0.668,0.815-2.156,2.183-4.605,2.183h-24.481c0.901-3.418,1.034-7.036,0.322-10.608l-17.944-90.06
	c7.287-3.899,13.937-9.002,19.622-15.186c2.823,3.074,5.889,5.875,9.147,8.409L312.111,487.308z M291.073,359.647
	c-1.621-2.445-4.361-3.915-7.295-3.915c-2.935,0-5.674,1.47-7.295,3.917c-10.563,15.932-28.234,25.446-47.271,25.446
	c-16.254,0-31.759-7.026-42.54-19.277c-1.662-1.888-4.056-2.97-6.571-2.97s-4.909,1.082-6.571,2.97
	c-11.251,12.788-27.442,19.826-44.443,19.245c-29.969-0.979-54.043-25.308-54.806-55.386l-0.023-0.839
	c-0.216-7.938-0.617-22.716,10.126-33.606c1.738-1.761,2.65-4.177,2.506-6.648c-0.142-2.473-1.324-4.767-3.254-6.318
	c-13.522-10.876-21.279-27.057-21.279-44.397v-3.748c0-14.371,5.366-28.094,15.112-38.642c3.098-3.353,3.098-8.525,0-11.878
	c-9.746-10.55-15.112-24.273-15.112-38.643c0-11.499,3.409-22.581,9.858-32.045c0.082-0.121,0.162-0.245,0.239-0.371
	c12.168-19.946,34.511-30.474,57.726-26.289c2.329,0.42,4.724-0.12,6.647-1.498c1.923-1.377,3.207-3.474,3.559-5.813
	c4.146-27.541,28.258-48.31,56.085-48.31c26.673,0,49.416,18.2,55.307,44.257c0.696,3.08,2.997,5.546,6.021,6.453
	c3.027,0.91,6.303,0.115,8.579-2.071c10.629-10.215,24.538-15.818,39.226-15.818c0.207,0,0.416,0.001,0.622,0.004
	c12.276,0.131,24.19,4.343,33.95,11.912l9.363,35.27c-10.556,2.789-20.518,7.914-28.914,14.929
	c-12.564-9.041-27.73-13.978-43.296-13.978c-20.455,0-40.041,8.59-53.974,23.336c-11.569-7.824-25.499-12.396-40.475-12.396
	c-40.002,0-72.546,32.614-72.546,72.703c0,25.809,13.707,49.527,35.529,62.519c-2.413,7.312-3.632,14.931-3.632,22.749
	c0,40.089,32.545,72.704,72.548,72.704c15.36,0,30.205-4.859,42.53-13.81c12.325,8.951,27.17,13.81,42.53,13.81
	c5.816,0,11.525-0.696,17.082-2.041l3.588,31.06C308.584,378.275,298.211,370.415,291.073,359.647z M165.085,250.565
	c-0.819-2.191-2.483-3.964-4.619-4.92c-19.82-8.879-32.627-28.667-32.627-50.412c0-30.437,24.691-55.199,55.042-55.199
	c13.197,0,25.322,4.686,34.815,12.481c0.478,0.607,1.037,1.164,1.69,1.644c0.22,0.161,0.455,0.284,0.684,0.422
	c10.965,10.098,17.853,24.581,17.853,40.651c0,8.084-1.714,15.886-5.095,23.195c-0.982,2.123-1.073,4.551-0.253,6.744
	c0.821,2.191,2.483,3.963,4.62,4.919c5.216,2.335,10.016,5.454,14.267,9.27c3.326,2.987,8.364,2.984,11.693,0.001
	c10.1-9.066,23.13-14.059,36.683-14.059c0.85,0,1.7,0.023,2.55,0.062l12.504,108.234c-4.866,1.386-9.903,2.103-15.053,2.103
	c-13.554,0-26.582-4.993-36.685-14.059c-3.325-2.984-8.365-2.984-11.691,0c-10.102,9.066-23.131,14.059-36.685,14.059
	c-30.35,0-55.043-24.763-55.043-55.2c0-8.083,1.714-15.885,5.096-23.193C165.813,255.185,165.905,252.756,165.085,250.565z
	 M297.238,180.784l3.122,27.024c-0.174-0.002-0.348-0.011-0.522-0.011c-15.361,0-30.207,4.859-42.531,13.811
	c-1.781-1.294-3.62-2.504-5.511-3.629c2.412-7.311,3.631-14.931,3.631-22.747c0-18.768-7.134-35.898-18.826-48.808
	c10.615-10.953,25.346-17.33,40.729-17.33c11.137,0,22.006,3.311,31.224,9.404C299.517,151.086,295.515,165.858,297.238,180.784z
	 M400.466,357.288h-18.417c-6.027,0-10.913,4.898-10.913,10.94c0,6.041,4.886,10.94,10.913,10.94h15.889l-5.439,47.081
	c-5.764,49.882-19.373,66.018-25.061,66.018c-5.414,0-18.379-15.451-23.898-63.209l-3.773-32.661c0.223-0.635,0.384-1.301,0.456-2
	c0.213-2.051-0.305-4.007-1.337-5.619l-9.88-85.53h33.004c6.028,0,10.914-4.899,10.914-10.94c0-6.042-4.886-10.94-10.914-10.94
	h-35.533l-8.959-77.549h11.923h34.412c6.027,0,10.913-4.898,10.913-10.94s-4.886-10.94-10.913-10.94h-34.412h-14.45l-0.365-3.165
	c-1.409-12.194,2.68-24.37,11.516-34.285c10.475-11.755,26.07-18.773,41.715-18.773c15.642,0,31.236,7.019,41.713,18.776
	c8.836,9.915,12.927,22.089,11.519,34.283l-6.109,52.878h-47.123c-6.028,0-10.914,4.899-10.914,10.94
	c0,6.042,4.886,10.94,10.914,10.94h44.594L400.466,357.288z M426.239,286.723l9.612-83.2c8.796,10.186,13.79,23.265,13.79,37.16
	C449.641,259.26,440.673,276.221,426.239,286.723z"/>
</svg>