<!DOCTYPE svg PUBLIC "-//W3C//DTD SVG 1.1//EN" "http://www.w3.org/Graphics/SVG/1.1/DTD/svg11.dtd">
<!-- Uploaded to: SVG Repo, www.svgrepo.com, Transformed by: SVG Repo Mixer Tools -->
<svg fill="#2E854B" width="800px" height="800px" viewBox="0 0 512 512" xmlns="http://www.w3.org/2000/svg">
<g id="SVGRepo_bgCarrier" stroke-width="0"/>
<g id="SVGRepo_tracerCarrier" stroke-linecap="round" stroke-linejoin="round"/>
<g id="SVGRepo_iconCarrier"> <g id="Dietary_supplement_researching"> <path d="M233.5042,278.5078l-.3555-.1958a34.3151,34.3151,0,0,1-17.54-25.9475c8.9771-5.0873,14.4092-11.4623,14.4092-19.0842V201.7647c0-22.2207-46.1631-33.8472-91.7646-33.8472S46.49,179.544,46.49,201.7647V233.28c0,7.6219,5.4321,13.9969,14.4092,19.0842a34.3224,34.3224,0,0,1-17.5469,25.9519l-.3457.19a41.7544,41.7544,0,0,0-21.6582,36.604v125.166c0,14.5566,12.87,27.7632,36.2393,37.1865,21.6435,8.7271,50.292,13.5332,80.666,13.5332s59.0224-4.8061,80.666-13.5332c23.37-9.4233,36.24-22.6294,36.24-37.1865V315.1109A41.7543,41.7543,0,0,0,233.5042,278.5078ZM58.49,201.7647c0-3.5713,6.4854-9.28,20.9727-13.9844,15.6162-5.07,36.4951-7.8628,58.791-7.8628s43.1758,2.7925,58.792,7.8628c14.4873,4.7041,20.9726,10.4131,20.9726,13.9844V233.28c0,3.5713-6.4853,9.28-20.9726,13.9839-15.6162,5.07-36.4952,7.8628-58.792,7.8628s-43.1748-2.7925-58.791-7.8628C64.9749,242.56,58.49,236.8511,58.49,233.28Zm184.67,238.5122c0,9.1982-10.4707,18.6958-28.7275,26.0571-20.251,8.1655-47.3047,12.6626-76.1787,12.6626-61.8223,0-104.9053-20.4058-104.9053-38.72V315.1109a29.76,29.76,0,0,1,15.4414-26.09l.3467-.19a46.3236,46.3236,0,0,0,23.0908-31.35c17.5283,6.3791,41.856,9.646,66.0264,9.646s48.4985-3.2669,66.0273-9.6461A46.3217,46.3217,0,0,0,227.37,288.83l.3554.1953a29.7578,29.7578,0,0,1,15.4336,26.086Z"/> <path d="M184.8655,322.1472a252.9387,252.9387,0,0,1-46.1289,4.4689,257.5605,257.5605,0,0,1-46.5757-4.5024,14.8513,14.8513,0,0,0-17.5669,14.65l.1865,77.3571a14.8947,14.8947,0,0,0,9.5933,13.8631c10.31,3.9537,28.7534,9.1626,54.3628,9.1626,25.5722,0,43.999-5.1937,54.3178-9.1454a14.8877,14.8877,0,0,0,9.5923-13.9346L202.46,336.72A14.8527,14.8527,0,0,0,184.8655,322.1472Z"/> <ellipse cx="138.2537" cy="201.7645" rx="56.2656" ry="15.053"/> <path d="M449.8079,401.41H315.3206a36.52,36.52,0,1,0,0,73.0405H449.8079a36.52,36.52,0,1,0,0-73.0405ZM290.8,437.93A24.5485,24.5485,0,0,1,315.3206,413.41H381.092V462.45H315.3206A24.5481,24.5481,0,0,1,290.8,437.93Z"/> <path d="M427.2166,189.6922a98.8157,98.8157,0,1,0-139.7466,0A98.8158,98.8158,0,0,0,427.2166,189.6922ZM305.2493,67.7248a73.6723,73.6723,0,1,1,0,104.1884A73.6722,73.6722,0,0,1,305.2493,67.7248Z"/> <path d="M436.1785,198.656a112.7214,112.7214,0,0,1-10.7163,9.4389l34.5332,34.5334a14.2536,14.2536,0,1,0,20.1577-20.1575L445.6174,187.94A112.3155,112.3155,0,0,1,436.1785,198.656Z"/> <path d="M357.2253,158.833c.0547,0,.11,0,.1651,0,21.5019-.0922,37.6943-18.2441,45.4316-29.0561a16.8236,16.8236,0,0,0-.1152-19.7319c-14.14-19.4034-29.36-29.24-45.2461-29.24-.0537,0-.1094.0005-.1641.0005-21.5009.0918-37.6943,18.2441-45.4326,29.0566a16.8239,16.8239,0,0,0,.1162,19.732C326.1189,148.9971,341.3406,158.8335,357.2253,158.833Zm-35.6035-41.9873c14.9219-20.8481,28.7891-24.0107,35.7266-24.04l.1094-.0005c11.8359,0,23.7978,8.1782,35.5507,24.3067a4.8445,4.8445,0,0,1,.0557,5.6811c-14.9209,20.8477-28.7871,24.01-35.7256,24.04-11.916.0616-23.87-8.1269-35.6611-24.3061v-.0005A4.8449,4.8449,0,0,1,321.6218,116.8457Z"/> <path d="M357.343,133.7086a13.89,13.89,0,1,0-13.8891-13.89A13.8894,13.8894,0,0,0,357.343,133.7086Z"/> <path d="M479.6521,338.6978H457.9636a28.7989,28.7989,0,0,1-25.0488-14.5913,28.7981,28.7981,0,0,1,25.0488-14.5913h21.6885a11,11,0,0,0,0-22H457.9636a50.77,50.77,0,0,0-37.2256,16.2459,50.79,50.79,0,0,0-37.2509-16.2459h-1.7627a50.7977,50.7977,0,0,0-46.66,30.664l-1.3516,3.1255a28.811,28.811,0,0,1-26.4648,17.3931h-20.94a11,11,0,0,0,0,22h20.94a50.79,50.79,0,0,0,37.2427-16.2371,50.7723,50.7723,0,0,0,37.23,16.2321c.2148,0,1.7671.005,1.7671.005a50.7748,50.7748,0,0,0,28.0805-8.4557l-.0019.0007a62.8889,62.8889,0,0,1-11.28-17.45l-.5-1.15-.002-.0054a28.7862,28.7862,0,0,1-16.2963,5.06s-1.5191-.005-1.7671-.005a28.7815,28.7815,0,0,1-25.043-14.5886,28.7975,28.7975,0,0,1,25.0474-14.589h1.7627A28.8123,28.8123,0,0,1,409.9529,326.91l1.35,3.1225a50.7989,50.7989,0,0,0,46.6611,30.6656h21.6885a11,11,0,0,0,0-22Z"/> <path d="M275.31,298.5128a10.9936,10.9936,0,0,0,11,11h20.94a28.6693,28.6693,0,0,1,16.3,5.06l.5-1.15a62.8886,62.8886,0,0,1,11.28-17.45,50.7256,50.7256,0,0,0-28.08-8.46H286.31A11,11,0,0,0,275.31,298.5128Z"/> </g> </g>
</svg>